<svg xmlns="http://www.w3.org/2000/svg" width="120" height="120" viewBox="0 0 120 120" role="img" aria-label="pm-dead-mentors bundle logo">
  <defs>
    <linearGradient id="g" x1="0" y1="0" x2="1" y2="1">
      <stop offset="0" stop-color="#7c5a2e"/><stop offset="1" stop-color="#3f2d16"/>
    </linearGradient>
  </defs>
  <rect width="120" height="120" rx="26" fill="url(#g)"/>
  <rect x="4" y="4" width="112" height="112" rx="22" fill="none" stroke="rgba(255,255,255,.25)" stroke-width="2"/>
  <circle cx="22" cy="20" r="2.5" fill="rgba(255,255,255,.7)"/>
  <circle cx="102" cy="102" r="2" fill="rgba(255,255,255,.5)"/>
  
    <g stroke="#fff" stroke-width="6" fill="rgba(255,255,255,.14)" stroke-linecap="round">
      <path d="M38 30 h44 a8 8 0 0 1 0 16 h-44 a8 8 0 0 1 0 -16z"/>
      <path d="M38 46 v40 a8 8 0 0 0 8 8 h36 a8 8 0 0 0 8 -8 v-40"/>
      <line x1="50" y1="62" x2="78" y2="62"/><line x1="50" y1="76" x2="70" y2="76"/>
    </g>
    <path d="M26 96 q14 -10 20 -26 M94 96 q-14 -10 -20 -26" stroke="#d8c58a" stroke-width="5" fill="none" stroke-linecap="round"/>
</svg>
