<svg xmlns="http://www.w3.org/2000/svg" width="120" height="120" viewBox="0 0 120 120" role="img" aria-label="pm-simulators bundle logo">
  <defs>
    <linearGradient id="g" x1="0" y1="0" x2="1" y2="1">
      <stop offset="0" stop-color="#ec4899"/><stop offset="1" stop-color="#8b5cf6"/>
    </linearGradient>
  </defs>
  <rect width="120" height="120" rx="26" fill="url(#g)"/>
  <rect x="4" y="4" width="112" height="112" rx="22" fill="none" stroke="rgba(255,255,255,.25)" stroke-width="2"/>
  <circle cx="22" cy="20" r="2.5" fill="rgba(255,255,255,.7)"/>
  <circle cx="102" cy="102" r="2" fill="rgba(255,255,255,.5)"/>
  
    <g fill="#fff">
      <path d="M28 34 q16 -8 32 0 q0 26 -16 34 q-16 -8 -16 -34z" opacity=".85"/>
      <path d="M60 50 q16 -8 32 0 q0 26 -16 34 q-16 -8 -16 -34z"/>
      <circle cx="38" cy="46" r="3.4" fill="#8b5cf6"/><circle cx="50" cy="46" r="3.4" fill="#8b5cf6"/>
      <path d="M38 58 q6 6 12 0" stroke="#8b5cf6" stroke-width="3.2" fill="none" stroke-linecap="round"/>
      <circle cx="70" cy="62" r="3.4" fill="#8b5cf6"/><circle cx="82" cy="62" r="3.4" fill="#8b5cf6"/>
      <path d="M70 76 q6 -6 12 0" stroke="#8b5cf6" stroke-width="3.2" fill="none" stroke-linecap="round"/>
    </g>
</svg>
